<?xml version="1.0" standalone="no"?>
<!DOCTYPE svg PUBLIC "-//W3C//DTD SVG 20010904//EN"
 "http://www.w3.org/TR/2001/REC-SVG-20010904/DTD/svg10.dtd">
<svg version="1.0" xmlns="http://www.w3.org/2000/svg"
 width="376.000000pt" height="376.000000pt" viewBox="0 0 376.000000 376.000000"
 preserveAspectRatio="xMidYMid meet">
<metadata>
Created by potrace 1.14, written by Peter Selinger 2001-2017
</metadata>
<g transform="translate(0.000000,376.000000) scale(0.100000,-0.100000)"
fill="#000000" stroke="none">
<path d="M1940 3591 c-8 -6 -17 -8 -21 -5 -4 2 -24 -5 -44 -16 -20 -11 -45
-18 -55 -15 -11 3 -37 -3 -59 -15 -22 -11 -48 -20 -58 -20 -26 0 -65 -29 -57
-43 5 -9 4 -9 -6 0 -10 9 -20 6 -46 -14 -19 -14 -34 -30 -34 -36 0 -6 -10 -21
-22 -34 -12 -13 -23 -34 -23 -46 0 -12 -5 -21 -12 -20 -9 2 -11 -12 -7 -50 l5
-52 -25 30 c-29 35 -30 33 -15 -34 8 -36 7 -55 -1 -71 -14 -27 -20 -110 -9
-131 6 -11 -5 -31 -37 -70 -37 -46 -44 -61 -44 -98 0 -26 8 -57 20 -77 12 -18
23 -55 27 -82 5 -47 6 -49 37 -48 17 1 37 5 44 10 20 12 157 20 176 9 13 -7
-8 -12 -81 -18 -54 -4 -111 -7 -128 -7 -16 0 -24 -2 -17 -5 10 -4 9 -8 -4 -18
-16 -11 -21 -29 -23 -79 -1 -16 -3 -16 -21 5 -22 27 -27 14 -6 -16 7 -11 21
-44 30 -72 10 -29 22 -55 27 -58 13 -9 11 6 -6 35 -8 14 -14 32 -14 40 0 10 2
11 6 2 2 -6 9 -10 13 -7 5 3 12 -10 16 -30 3 -20 15 -40 25 -45 23 -13 90 -13
70 -1 -10 6 -10 13 -2 28 5 11 7 24 3 28 -4 4 8 5 27 1 18 -3 51 -6 72 -6 28
0 39 -4 39 -15 0 -31 22 -13 45 38 27 57 31 54 14 -8 -13 -46 -45 -85 -70 -85
-10 0 -21 -5 -24 -11 -12 -18 -57 -31 -65 -19 -4 6 -23 12 -43 13 -20 1 -37 5
-37 8 0 4 -11 9 -24 11 -20 4 -23 2 -15 -11 16 -28 40 -104 49 -152 4 -25 22
-65 38 -90 46 -69 102 -178 102 -198 0 -19 -47 -57 -57 -47 -3 3 -1 23 5 46 8
31 7 40 -3 40 -36 0 -40 -50 -8 -111 50 -95 184 -250 271 -314 55 -40 266
-218 319 -268 l41 -40 71 72 c122 124 186 261 179 383 -3 60 -7 71 -35 100
-77 79 -85 92 -79 122 3 15 6 37 6 47 0 11 7 19 15 19 13 0 35 55 35 90 1 37
50 151 77 178 8 8 12 21 9 28 -3 8 -1 14 4 14 6 0 10 7 10 15 0 7 6 18 13 22
7 4 25 38 41 75 22 53 28 82 27 135 0 36 -3 68 -5 71 -3 2 1 11 9 19 8 8 17
26 20 41 3 15 10 41 16 57 6 17 22 59 35 95 30 83 31 158 4 193 -11 14 -20 31
-20 38 0 6 -11 27 -25 45 -14 18 -25 39 -25 47 0 7 -11 24 -25 37 -14 13 -28
39 -31 57 -4 19 -16 47 -28 61 -28 36 -44 61 -61 98 -19 41 -103 97 -185 122
-46 14 -66 25 -68 38 -2 11 -7 23 -11 27 -10 10 -205 12 -220 2 -6 -3 -14 1
-17 9 -7 18 -13 19 -34 7z m-483 -553 c-3 -8 -6 -5 -6 6 -1 11 2 17 5 13 3 -3
4 -12 1 -19z m376 -113 c21 -4 27 -10 23 -22 -5 -12 -3 -13 7 -5 8 7 18 7 27
2 8 -5 18 -6 22 -4 4 3 8 1 8 -4 0 -5 17 -9 38 -10 22 -1 65 -14 98 -29 32
-14 65 -25 73 -24 27 5 -1 -18 -37 -30 -20 -6 -57 -22 -82 -35 -25 -13 -58
-26 -73 -29 -15 -3 -25 -9 -22 -14 6 -11 -23 -23 -36 -15 -5 3 -9 0 -9 -6 0
-6 -4 -8 -10 -5 -5 3 -10 1 -10 -6 0 -11 7 -11 80 6 33 8 -35 -25 -70 -34
l-25 -6 29 -30 c23 -24 27 -26 22 -9 -4 15 0 26 16 40 13 10 17 12 11 4 -7 -8
-13 -29 -13 -47 0 -37 -18 -44 -38 -13 -14 24 -60 27 -67 5 -17 -53 -15 -52
-27 -31 -8 15 -8 21 0 24 15 5 15 35 1 49 -12 12 -4 15 56 26 32 5 -39 38 -94
44 -25 2 -67 10 -93 18 -26 7 -57 11 -70 8 -20 -4 -18 -1 12 25 97 84 120 108
120 129 0 18 8 24 43 31 23 5 47 7 52 6 6 -1 23 -5 38 -9z m382 -203 c-27 -4
-28 -5 -10 -13 13 -6 -6 -7 -50 -3 -38 3 -94 0 -124 -6 -34 -6 -58 -7 -64 -1
-6 6 9 12 39 16 27 3 56 8 64 9 8 2 51 4 95 3 44 0 67 -2 50 -5z m127 -15 c12
-19 10 -22 -23 -34 -41 -16 -56 -8 -55 28 1 29 2 30 36 24 19 -4 38 -12 42
-18z m-475 -152 c20 -43 46 -48 38 -7 -4 22 -1 19 15 -13 11 -22 18 -31 15
-20 -5 19 -4 19 9 2 8 -10 22 -24 32 -31 13 -10 14 -15 4 -21 -8 -5 -11 -4 -7
2 3 5 0 10 -8 10 -11 0 -12 -4 -4 -14 6 -7 15 -10 20 -7 5 3 9 0 9 -5 0 -6 5
-11 11 -11 6 0 8 8 4 19 -8 26 7 33 79 38 33 2 74 8 90 13 47 16 65 13 59 -10
-3 -11 0 -20 6 -20 6 0 11 7 11 17 0 30 11 7 13 -30 5 -59 -19 -81 -89 -80
-57 0 -124 12 -192 34 -20 7 -45 28 -63 51 -30 42 -38 41 -15 -2 10 -17 11
-32 5 -48 -9 -23 -8 -24 17 -18 18 5 32 2 45 -10 24 -22 24 -31 0 -44 -15 -7
-25 -5 -42 9 -21 17 -26 17 -46 4 -15 -10 -41 -14 -78 -11 -37 2 -56 -1 -60
-9 -6 -17 -25 -16 -25 1 0 7 8 24 18 37 11 13 28 56 40 94 22 71 45 115 63
115 5 0 17 -16 26 -35z m648 -215 c-3 -5 -11 -10 -16 -10 -6 0 -7 5 -4 10 3 6
11 10 16 10 6 0 7 -4 4 -10z m-645 -240 c0 -5 -6 -10 -14 -10 -8 0 -18 5 -21
10 -3 6 3 10 14 10 12 0 21 -4 21 -10z m104 -9 c11 -17 -24 -33 -86 -41 -76
-8 -102 -4 -85 15 8 9 16 10 25 3 8 -7 12 -7 12 2 0 9 11 11 38 8 24 -4 45 0
57 8 22 16 32 17 39 5z m46 -155 c0 -19 -19 -30 -51 -31 -18 -1 -25 4 -22 12
3 7 13 13 23 13 11 0 22 5 25 10 9 15 25 12 25 -4z"/>
<path d="M1790 2650 c0 -6 7 -10 15 -10 8 0 15 2 15 4 0 2 -7 6 -15 10 -8 3
-15 1 -15 -4z"/>
<path d="M1370 1566 c0 -2 16 -13 35 -25 19 -11 35 -17 35 -13 0 5 -16 16 -35
25 -19 9 -35 15 -35 13z"/>
<path d="M2580 1334 c-25 -19 -55 -43 -67 -53 -12 -10 -24 -17 -26 -15 -2 2
-4 -3 -4 -11 0 -21 46 8 104 67 56 56 54 59 -7 12z"/>
<path d="M2449 1243 c-13 -16 -12 -17 4 -4 16 13 21 21 13 21 -2 0 -10 -8 -17
-17z"/>
<path d="M2901 973 c-6 -10 -11 -14 -11 -10 0 5 -8 1 -17 -9 -11 -10 -18 -35
-19 -63 -1 -25 -11 -79 -24 -118 -21 -69 -23 -73 -47 -67 -21 6 -24 4 -20 -12
12 -40 18 -122 10 -127 -4 -3 -18 3 -31 13 -22 18 -14 39 9 24 8 -5 9 8 4 44
-5 37 -2 58 9 80 20 39 20 43 -1 35 -12 -5 -15 -2 -11 8 3 8 9 22 13 32 4 10
3 17 -5 17 -7 0 -9 8 -5 20 9 27 1 25 -20 -6 -12 -19 -14 -29 -5 -39 8 -10 8
-19 0 -34 -9 -18 -8 -21 7 -21 12 0 14 -3 7 -10 -6 -6 -43 -14 -83 -17 -80 -7
-80 -7 -40 -83 11 -19 19 -40 19 -47 0 -6 5 -15 12 -19 18 -11 1 56 -22 87
l-19 27 52 5 c29 2 55 3 60 0 9 -6 9 -57 0 -67 -13 -12 -30 -139 -23 -165 l6
-25 11 30 c7 16 13 38 15 48 5 32 23 14 23 -23 0 -20 6 -36 14 -39 10 -3 12 2
8 20 -5 19 -2 24 13 25 25 2 25 4 -6 -85 -14 -40 -24 -80 -22 -88 4 -16 110
-155 116 -150 2 2 -2 39 -7 82 -9 64 -8 88 4 128 17 57 41 87 61 79 10 -3 14
2 14 18 0 13 12 42 25 64 39 64 30 115 -21 115 -21 0 -104 -81 -104 -101 0 -5
-4 -9 -10 -9 -19 0 -10 70 25 181 20 62 39 118 44 123 5 6 14 28 20 49 7 20
16 37 21 37 4 0 11 7 14 16 6 15 4 15 -16 2 -12 -8 -26 -30 -31 -49 -5 -19
-12 -36 -17 -39 -12 -8 -116 -335 -111 -353 1 -5 -3 -6 -8 -3 -5 3 -3 23 5 45
7 22 16 53 19 68 2 16 18 75 35 132 19 63 29 114 25 130 -5 23 1 32 34 59 22
18 45 32 51 32 6 0 8 5 5 10 -10 16 -43 12 -54 -7z"/>
<path d="M2798 804 c-3 -5 -2 -18 2 -28 5 -16 8 -17 12 -4 7 16 -7 45 -14 32z"/>
<path d="M2918 719 c-16 -6 -25 -16 -22 -23 3 -8 -2 -16 -11 -20 -9 -3 -13
-11 -10 -16 4 -6 1 -17 -5 -25 -24 -29 0 -15 35 21 20 20 34 39 31 42 -3 3 -1
11 5 19 13 15 13 15 -23 2z"/>
<path d="M2487 696 l-27 -12 46 -60 c25 -32 55 -63 67 -69 28 -12 35 -23 31
-44 -2 -9 10 -32 27 -51 28 -31 30 -32 24 -10 -20 67 -112 255 -125 257 -8 1
-27 -4 -43 -11z m103 -128 c0 -5 -9 -4 -20 2 -11 6 -20 12 -20 14 0 2 9 2 20
-1 11 -3 20 -9 20 -15z"/>
<path d="M1653 677 c-8 -13 -10 -137 -2 -137 11 0 27 -82 39 -200 20 -195 21
-204 31 -234 5 -16 9 -46 9 -67 0 -28 4 -39 15 -39 8 0 15 5 15 10 0 6 5 10
11 10 5 0 7 -4 4 -10 -8 -14 51 -13 77 1 12 7 18 7 14 1 -4 -7 26 -10 83 -11
86 0 89 1 83 21 -5 22 -36 58 -49 58 -5 0 -21 -7 -36 -15 -25 -13 -30 -13 -44
0 -8 8 -22 16 -31 16 -9 1 12 7 47 14 36 7 71 11 78 8 7 -3 21 1 31 8 15 13
16 12 3 -3 -12 -16 -11 -18 14 -18 23 0 26 -2 15 -15 -10 -12 -16 -13 -28 -3
-13 11 -14 11 -7 -2 4 -8 15 -24 24 -34 13 -16 13 -18 1 -11 -13 8 -13 7 -1
-8 7 -9 23 -17 34 -17 21 0 21 0 -1 20 -23 22 -30 36 -11 25 17 -11 59 -13 59
-3 0 5 5 6 10 3 6 -3 10 -15 10 -26 0 -10 5 -19 10 -19 6 0 8 17 4 43 l-6 42
42 -42 c55 -57 77 -56 138 7 63 65 77 65 69 0 l-6 -50 81 0 81 0 -7 73 c-4 39
-8 113 -9 163 -2 90 -2 91 20 81 13 -5 19 -15 16 -24 -6 -16 13 -122 30 -168
6 -16 10 -42 8 -57 -2 -20 2 -28 13 -28 9 0 16 -8 16 -20 0 -18 7 -20 65 -20
l65 0 0 33 c0 17 3 42 6 54 5 20 7 20 25 5 13 -11 15 -18 7 -23 -15 -9 -19
-39 -6 -39 6 0 5 -6 -2 -15 -11 -13 -6 -15 39 -15 62 0 65 12 19 79 -17 25
-48 71 -69 102 -31 47 -80 110 -152 199 -85 105 -140 178 -181 238 -27 39 -53
72 -58 72 -5 0 -47 -39 -94 -87 l-85 -88 -59 63 c-33 34 -60 68 -60 75 0 6 26
-16 58 -51 l57 -62 25 19 c21 17 22 21 10 36 -13 16 -135 76 -148 73 -4 -1
-14 2 -22 5 -29 11 -430 15 -437 4z m766 -20 c-2 -1 -13 -9 -24 -17 -19 -14
-19 -14 -6 3 7 9 18 17 24 17 6 0 8 -1 6 -3z m-669 -22 c-14 -7 -27 -11 -30
-9 -6 7 22 24 40 23 9 0 5 -6 -10 -14z m323 8 c10 -6 -22 -43 -38 -43 -7 0
-17 -10 -24 -22 -11 -22 -11 -22 -6 5 3 15 1 27 -4 27 -14 0 -28 -22 -33 -53
-4 -21 -2 -27 8 -23 16 6 19 -15 5 -30 -17 -16 -16 -103 0 -119 19 -19 83 -10
75 11 -7 18 8 18 23 0 6 -7 9 -21 5 -30 -3 -9 -1 -22 5 -30 7 -8 9 -31 5 -60
l-7 -47 -21 19 c-31 28 -108 62 -142 63 -30 1 -27 3 19 13 22 5 27 12 27 36 0
26 -4 30 -27 31 -91 2 -118 14 -106 47 5 11 10 8 20 -12 10 -20 19 -25 36 -21
12 3 32 7 45 8 27 2 30 17 2 17 -11 0 -20 5 -20 11 0 5 -4 8 -9 5 -5 -4 -11 0
-14 6 -3 8 -9 3 -15 -12 l-11 -25 0 28 c-1 32 -26 37 -47 10 -10 -15 -15 -16
-26 -5 -11 11 -10 12 7 6 16 -6 18 -5 8 7 -7 7 -13 22 -14 33 0 20 -1 20 -16
-1 -8 -13 -19 -23 -24 -23 -16 0 -37 55 -32 82 4 21 10 26 32 24 21 -1 27 2
24 14 -2 9 5 24 16 34 19 17 26 18 60 7 59 -17 84 -55 77 -112 -5 -37 -3 -49
11 -60 16 -12 17 -12 6 2 -14 18 -3 113 16 132 13 13 15 47 1 47 -5 0 -14 -9
-21 -21 -11 -21 -11 -21 -32 -1 -12 11 -29 22 -37 25 -8 3 30 5 85 5 55 0 103
-2 108 -5z m57 -65 c0 -4 -6 -8 -14 -8 -8 0 -22 -10 -32 -22 l-16 -23 7 25 c3
14 9 35 12 48 5 22 6 22 24 6 11 -9 19 -21 19 -26z m193 -40 c-21 -56 -27 -61
-53 -53 -21 7 -20 9 21 51 24 24 44 44 46 44 2 0 -5 -19 -14 -42z m-165 10 c8
-10 4 -13 -14 -14 -20 -2 -23 1 -13 12 14 17 14 17 27 2z m334 -7 c7 10 8 8 5
-9 -3 -12 -1 -20 4 -16 5 3 9 0 9 -6 0 -6 4 -9 8 -6 4 2 13 -4 20 -14 9 -14 8
-21 -3 -30 -8 -7 -15 -8 -15 -3 0 5 -16 16 -35 23 -47 19 -59 34 -40 50 13 11
15 10 10 -6 -3 -11 0 -9 7 5 7 14 14 18 16 11 3 -9 7 -9 14 1z m-368 -56 c4
-11 -1 -15 -19 -15 -18 0 -23 4 -19 15 4 8 12 15 19 15 7 0 15 -7 19 -15z
m-70 -11 c23 -9 20 -34 -5 -34 -13 0 -23 -8 -26 -20 -8 -31 -25 -19 -28 19 -2
24 1 31 11 27 7 -3 16 -1 19 4 7 12 9 12 29 4z m225 -20 c2 -2 -10 -19 -28
-39 -33 -38 -38 -51 -19 -57 7 -3 -1 -21 -20 -48 -39 -52 -39 -58 -6 -66 14
-4 22 -9 17 -13 -4 -3 -27 -27 -51 -53 l-42 -48 6 55 c6 52 6 55 -16 55 -16 0
-20 4 -16 16 3 9 6 20 6 25 0 6 5 7 12 3 7 -4 8 -3 4 4 -4 6 -2 21 5 34 9 17
9 24 -5 33 -20 15 -21 26 -1 19 11 -5 17 3 21 25 10 46 48 73 93 65 20 -4 38
-8 40 -10z m-509 -91 c0 -3 -9 2 -19 11 -15 14 -20 15 -24 4 -2 -7 -3 -5 -2 4
2 10 -1 21 -6 24 -5 3 -9 9 -9 14 0 5 14 -5 30 -22 17 -16 30 -32 30 -35z m-9
50 c13 -16 12 -17 -3 -4 -10 7 -18 15 -18 17 0 8 8 3 21 -13z m48 -23 c10 -5
21 -17 25 -27 5 -16 5 -16 -6 -2 -7 8 -22 21 -33 27 -24 14 -11 16 14 2z m101
-20 c0 -5 -5 -10 -11 -10 -5 0 -7 5 -4 10 3 6 8 10 11 10 2 0 4 -4 4 -10z m30
0 c0 10 3 11 11 3 13 -13 4 -33 -17 -33 -8 0 -14 10 -14 23 0 18 2 19 10 7 8
-13 10 -13 10 0z m455 -35 c-10 -5 -47 -29 -82 -52 -66 -43 -77 -43 -43 0 11
14 20 36 20 49 0 41 16 47 72 30 42 -14 47 -18 33 -27z m-615 -10 c0 -21 -4
-25 -27 -24 -24 2 -25 2 -5 6 25 5 28 13 10 31 -9 9 -8 12 5 12 11 0 17 -8 17
-25z m490 6 c0 -10 -6 -23 -13 -30 -11 -8 -13 -5 -9 19 5 33 22 41 22 11z
m-393 3 c-3 -3 -12 -4 -19 -1 -8 3 -5 6 6 6 11 1 17 -2 13 -5z m-27 -24 c13
-8 13 -10 -2 -10 -9 0 -20 5 -23 10 -8 13 5 13 25 0z m0 -65 c0 -8 -7 -15 -15
-15 -16 0 -20 12 -8 23 11 12 23 8 23 -8z m596 -62 c2 -38 6 -90 10 -118 3
-27 3 -46 -2 -42 -4 4 -9 13 -10 20 -10 49 -25 117 -32 142 -10 31 -11 29 -29
-26 -4 -15 -34 -55 -67 -90 l-59 -63 -38 45 c-33 38 -36 46 -24 58 13 13 17
12 34 -3 22 -20 41 -14 41 13 0 9 7 26 15 37 14 18 14 18 15 -6 0 -34 15 -54
34 -47 18 7 21 30 6 58 -9 16 -7 19 10 19 13 0 20 7 20 20 0 15 7 20 24 20 16
0 27 7 31 21 11 33 18 14 21 -58z m-378 40 c9 -9 18 -28 19 -42 1 -17 -1 -21
-6 -12 -6 9 -11 10 -15 2 -4 -6 -5 -15 -2 -19 3 -5 -1 -9 -9 -9 -8 0 -12 4 -9
9 3 4 0 8 -6 8 -6 0 -10 6 -9 13 3 27 -2 37 -18 37 -12 0 -14 3 -6 11 8 8 17
5 32 -10 12 -12 27 -21 34 -20 6 0 2 7 -10 16 -13 8 -23 19 -23 24 0 14 10 11
28 -8z m-168 -13 c8 -5 11 -12 8 -16 -4 -3 -14 1 -23 10 -18 17 -9 21 15 6z
m815 -29 c3 -5 1 -12 -4 -15 -5 -3 -11 1 -15 9 -6 16 9 21 19 6z m-600 -30
c-3 -12 -10 -21 -15 -21 -5 0 -4 11 2 25 13 29 23 26 13 -4z m-255 -20 c0 -12
-20 -25 -27 -18 -7 7 6 27 18 27 5 0 9 -4 9 -9z m160 -1 c0 -5 -5 -10 -11 -10
-5 0 -7 5 -4 10 3 6 8 10 11 10 2 0 4 -4 4 -10z m75 -30 c-3 -5 -12 -7 -20 -3
-21 7 -19 13 6 13 11 0 18 -4 14 -10z m-286 -13 c-2 -1 -14 -11 -26 -21 -23
-19 -23 -19 -23 2 0 17 6 22 27 22 14 0 24 -1 22 -3z m36 -16 c-6 -5 -21 -12
-35 -15 l-25 -7 25 15 c28 17 50 21 35 7z m272 -13 c-3 -8 -6 -5 -6 6 -1 11 2
17 5 13 3 -3 4 -12 1 -19z m-128 -2 c10 -12 9 -14 -6 -11 -10 2 -25 4 -33 5
-10 1 -9 4 5 10 11 5 21 9 21 9 1 1 7 -5 13 -13z m111 10 c0 -3 -4 -8 -10 -11
-5 -3 -10 -1 -10 4 0 6 5 11 10 11 6 0 10 -2 10 -4z"/>
<path d="M2036 632 c-3 -5 1 -9 9 -9 8 0 12 4 9 9 -3 4 -7 8 -9 8 -2 0 -6 -4
-9 -8z"/>
<path d="M1885 576 c1 -19 7 -42 13 -51 8 -15 10 -14 16 8 7 28 -8 77 -23 77
-5 0 -8 -15 -6 -34z"/>
<path d="M1814 575 c-8 -19 16 -89 26 -78 17 19 20 62 4 77 -19 20 -23 20 -30
1z"/>
<path d="M1866 513 c-6 -14 -5 -15 5 -6 7 7 10 15 7 18 -3 3 -9 -2 -12 -12z"/>
<path d="M2014 335 c24 -18 39 -20 34 -2 -3 6 -15 13 -29 15 -23 2 -23 2 -5
-13z"/>
<path d="M2734 416 c-7 -18 3 -36 19 -36 7 0 6 4 -3 10 -12 8 -13 11 -1 19 9
6 10 11 2 15 -6 4 -14 0 -17 -8z"/>
<path d="M2940 420 c0 -5 5 -10 11 -10 5 0 7 5 4 10 -3 6 -8 10 -11 10 -2 0
-4 -4 -4 -10z"/>
<path d="M1300 379 c0 -8 7 -24 16 -35 14 -18 15 -18 8 6 -8 31 -24 50 -24 29z"/>
<path d="M1212 313 c-11 -32 -32 -94 -48 -138 -15 -44 -38 -101 -51 -127 l-23
-48 25 0 c18 0 25 5 25 19 0 13 9 21 30 26 16 4 34 4 39 1 12 -8 26 12 40 57
7 20 17 37 23 37 7 0 7 4 0 13 -14 16 -12 59 3 69 5 4 22 8 36 8 36 0 50 19
40 56 -6 23 -14 30 -39 32 -19 2 -39 13 -51 28 -10 13 -21 24 -24 24 -2 0 -14
-26 -25 -57z"/>
<path d="M2560 156 c0 -34 4 -46 13 -43 14 5 12 66 -3 81 -7 7 -10 -7 -10 -38z"/>
<path d="M2179 29 c4 -13 14 -25 20 -27 10 -3 10 0 2 16 -16 30 -33 38 -22 11z"/>
<path d="M2110 14 c15 -17 30 -18 30 -1 0 7 -9 13 -21 14 -17 2 -18 -1 -9 -13z"/>
</g>
</svg>
